<?xml version="1.0" encoding="UTF-8"?>
<svg id="Camada_1" data-name="Camada 1" xmlns="http://www.w3.org/2000/svg" viewBox="0 0 219.06 176.35">
  <defs>
    <style>
      .cls-1 {
        fill-rule: evenodd;
      }

      .cls-1, .cls-2 {
        fill: #010101;
        stroke-width: 0px;
      }
    </style>
  </defs>
  <g>
    <path class="cls-1" d="m127.65,95.5c-.17.04-.87.04-1.17.04h-22.43v5.22h22.82c.17,0,1.52,0,1.78-.04,4.65-.44,6.78-4.3,6.78-7.69s-2.22-7.22-6.43-7.61c-.82-.09-1.52-.09-1.83-.09h-14.91c-.65,0-1.39-.04-1.65-.13-1.17-.3-1.61-1.35-1.61-2.22,0-.78.44-1.82,1.65-2.17.35-.09.74-.13,1.56-.13h21.51v-5.13h-21.86c-.91,0-1.61.04-2.17.13-3.74.52-6.34,3.52-6.34,7.34,0,3.13,1.96,6.78,6.26,7.39.78.09,1.87.09,2.35.09h14.52c.26,0,.91,0,1.04.04,1.65.22,2.22,1.43,2.22,2.52s-.65,2.17-2.09,2.43h0Z"/>
    <path class="cls-1" d="m85.15,95.5c-.18.04-.87.04-1.13.04h-22.47v5.22h22.82c.18,0,1.52,0,1.78-.04,4.65-.44,6.78-4.3,6.78-7.69s-2.22-7.22-6.43-7.61c-.83-.09-1.52-.09-1.83-.09h-14.91c-.65,0-1.39-.04-1.65-.13-1.17-.3-1.61-1.35-1.61-2.22,0-.78.44-1.82,1.65-2.17.35-.09.74-.13,1.57-.13h21.51v-5.13h-21.86c-.91,0-1.61.04-2.17.13-3.74.52-6.35,3.52-6.35,7.34,0,3.13,1.96,6.78,6.26,7.39.78.09,1.87.09,2.35.09h14.52c.26,0,.91,0,1.04.04,1.65.22,2.22,1.43,2.22,2.52s-.61,2.17-2.09,2.43h0Z"/>
    <rect class="cls-2" x="44.2" y="75.38" width="5.65" height="25.51"/>
    <polygon class="cls-1" points="31.73 100.89 31.73 75.38 26.08 75.38 26.08 94.41 7.26 75.38 0 75.38 0 100.89 5.65 100.89 5.65 81.77 24.6 100.89 31.73 100.89"/>
    <polygon class="cls-1" points="213.45 75.38 213.45 94.41 194.63 75.38 187.37 75.38 187.37 100.89 193.02 100.89 193.02 81.77 211.93 100.89 219.06 100.89 219.06 75.38 213.45 75.38"/>
    <path class="cls-1" d="m157.95,75.38l-15.91,25.51h6.87l2.83-4.56h18.56l2.82,4.56h6.82l-15.91-25.51h-6.08Zm9.43,16.12h-12.73l6.39-10.26,6.35,10.26Z"/>
  </g>
  <path class="cls-1" d="m34.38,61.93C45.34,29.94,75.53,8.45,109.57,8.45s64.28,21.49,75.19,53.49l.08.25h23.96v-2.88l-9.95-1.17c-6.15-.71-7.44-3.43-9.12-6.86l-.42-.84C174.93,19.82,143.61,0,109.57,0S44.21,19.82,29.82,50.52l-.42.84c-1.67,3.43-2.97,6.15-9.12,6.86l-9.95,1.17v2.88h23.92l.13-.33Z"/>
  <path class="cls-1" d="m184.84,114.13l-.08.25c-10.96,31.99-41.15,53.44-75.19,53.44s-64.28-21.49-75.19-53.49l-.08-.25H10.37v2.88l9.95,1.17c6.15.71,7.44,3.43,9.12,6.86l.42.84c14.39,30.69,45.71,50.52,79.75,50.52s65.36-19.82,79.75-50.48l.42-.84c1.67-3.43,2.97-6.15,9.12-6.86l9.95-1.17v-2.88h-24Z"/>
</svg>