<?xml version="1.0" encoding="UTF-8"?>
<svg id="Camada_1" data-name="Camada 1" xmlns="http://www.w3.org/2000/svg" viewBox="0 0 355.5 84.5">
  <defs>
    <style>
      .cls-1 {
        stroke-width: 0px;
      }
    </style>
  </defs>
  <path class="cls-1" d="m206.24,40.86c0,11.14,0,22.29.02,33.43,0,.55.26,1.1.41,1.66.51-.19,1.09-.29,1.53-.58,17.63-11.57,35.25-23.16,52.88-34.75,19.18-12.61,38.36-25.2,57.54-37.82,1.94-1.28,4.04-1.91,6.36-1.9,7.99.02,15.99,0,23.98,0,4.05,0,6.54,2.44,6.54,6.49.01,15.68.03,31.36-.03,47.04,0,1.84-.28,3.72-.76,5.5-.72,2.68-2.66,4.52-4.97,5.93-10.01,6.11-20.03,12.19-30.05,18.27-1.19.72-1.64.4-1.64-1.15,0-17.99,0-35.99-.02-53.98,0-.54-.21-1.07-.32-1.61-.54.17-1.16.24-1.62.54-8.56,5.59-17.11,11.22-25.66,16.83-18.3,12.02-36.61,24.04-54.91,36.06-1.93,1.27-4.03,1.88-6.36,1.88-17.73-.02-35.46-.01-53.19-.01-4.08,0-6.5-2.42-6.5-6.49,0-22.08,0-44.16,0-66.23,0-.3,0-.6,0-.9-.02-1.31-.48-1.58-1.6-.9-3.57,2.16-7.12,4.33-10.69,6.49-14.09,8.56-28.19,17.13-42.28,25.69-1.26.77-1.31,1.09-.25,2.15,8.41,8.5,16.82,17,25.22,25.5,4.25,4.29,8.5,8.58,12.72,12.9.34.35.48.9.71,1.35-.48.16-.97.47-1.45.47-11.87,0-23.74,0-35.61-.05-2.05,0-3.81-.76-5.3-2.28-7.41-7.55-14.86-15.04-22.3-22.56-.95-.96-1.06-.99-2.22-.28-12.61,7.66-25.22,15.31-37.8,23.01-2.32,1.42-4.73,2.16-7.48,2.15-11.48-.06-22.96-.03-34.44-.03-4.29,0-6.68-2.39-6.68-6.7,0-6.61,0-13.22,0-19.83C0,47.55-.01,38.93.02,30.31c0-1.49.15-3,.41-4.47.59-3.34,2.69-5.61,5.49-7.32C14.83,13.09,23.75,7.68,32.67,2.26c1.08-.65,2.15-1.32,3.23-1.96,1.01-.59,1.49-.32,1.55.86.02.3,0,.6,0,.9,0,20.01,0,40.01,0,60.02,0,.24-.04.49,0,.72.09.41.13.94.4,1.18.16.14.77-.1,1.1-.3,4.01-2.41,8-4.84,12-7.27,24.86-15.11,49.71-30.21,74.57-45.32,4.41-2.68,8.83-5.33,13.21-8.06,2.39-1.49,4.9-2.19,7.74-2.18,17.7.06,35.4.03,53.1.03,4.23,0,6.63,2.4,6.63,6.65,0,11.11,0,22.23,0,33.34h.02Z"/>
</svg>