<?xml version="1.0" encoding="UTF-8"?>
<svg id="Camada_1" data-name="Camada 1" xmlns="http://www.w3.org/2000/svg" viewBox="0 0 323.43 117.91">
  <defs>
    <style>
      .cls-1 {
        fill: #1e1e1c;
        fill-rule: evenodd;
        stroke-width: 0px;
      }
    </style>
  </defs>
  <path class="cls-1" d="m317.8,23.72h-92.53c-2.37.01-3.91-.69-3.91-3.94V6.05c0-3.96-2.14-6.05-6.01-6.05h-105.92c-3.96,0-6,2.23-6,6.02v13.72c0,2.9-1.37,3.95-3.92,3.95l-60.64.02c-4.64,0-7.35,2.21-8.75,5.12L.6,86.55c-.37.72-.6,1.58-.6,2.45,0,2.29,1.5,5.24,5.63,5.24h93.88c2.9-.01,3.91,1.31,3.91,3.94v13.73c0,4.13,2.39,6.02,6,6.02h52.97s52.95,0,52.95,0c3.61,0,6.01-1.75,6.01-5.97v-13.73c0-2.81,1.18-3.95,3.9-3.95l58.87-.02c4.06,0,6.98-1.07,9.02-4.85l29.19-57.03c.64-1.23,1.09-1.93,1.09-3.4,0-3.87-3.34-5.23-5.63-5.23h0Zm-23.32,22.99l-14.07,27.52c-.88,1.6-2.45,1.67-3.55,1.67h-69.86c-2.9,0-3.96,1.32-3.96,3.95v15.83c0,2.63-1.16,3.89-3.97,3.89h-73.37c-2.45,0-3.96-.86-3.96-3.93v-15.83c0-2.89-1.33-3.93-3.96-3.93H32.15c-2.1,0-3.56-1.33-3.56-3.17,0-.53.13-1.04.36-1.48l14.07-27.53c.54-.98,1.42-1.65,3.55-1.65h71.21c2.46,0,3.98-.98,3.98-3.97v-15.83c0-2.81,1.22-3.94,3.94-3.94h73.38c2.63,0,3.94,1.16,3.94,3.97v15.83c0,2.72,1.26,3.93,3.98,3.93h84.28c2.68,0,3.56,1.77,3.56,3.17,0,.53-.13,1.04-.36,1.48h0Z"/>
</svg>